<svg xmlns="http://www.w3.org/2000/svg" xmlns:xlink="http://www.w3.org/1999/xlink" width="239" height="50.957" viewBox="0 0 239 50.957">
  <defs>
    <clipPath id="clip-path">
      <rect id="Rectangle_1430" data-name="Rectangle 1430" width="239" height="50.957" fill="none"/>
    </clipPath>
  </defs>
  <g id="logo" clip-path="url(#clip-path)">
    <path id="Path_12459" data-name="Path 12459" d="M69.427,31.621c-.968,3.423,4.019,5.4,5.226,5A8.836,8.836,0,0,1,72.7,41.84c-.786,1-2.331,2.307-3.5,1.18a5.186,5.186,0,0,1-1.3-3.161c-.3-4.97-.73-9.1-.323-9.974.829-1.782,2.817-7.258,2.168-10.291a11.309,11.309,0,0,0-10.23,1.886,1.034,1.034,0,0,1-1.08.119,68.585,68.585,0,0,0-13.6-4.308,67.311,67.311,0,0,0-14.5-.575.607.607,0,0,1-.589-.3c-3.235-5.316-8.486-5.469-8.561-5.351C19.546,13.7,19,19.39,19.17,21.348c.08.925-2.19,4.9-4.43,10.456-1.433,3.551-1.921,1.525-2.351-.172-1.375-5.439-2.866-11.293.111-19.595A6.727,6.727,0,0,0,20.56,8.05C21.519,5.7,19.582,0,13.489,0S5.556,4.2,3.8,8.743C-2.474,26.849.36,38.567,2.825,45.905a47.975,47.975,0,0,0,2.039,5.051H76.879a31.414,31.414,0,0,0,5.568-17.216c0-7.019-10.859-9.754-13.02-2.12" fill="#1a1311"/>
    <path id="Path_12460" data-name="Path 12460" d="M41.014,27.853c-.3-.006-.882-.023-1.576-.059a1.826,1.826,0,0,1,.166,1.123,2.214,2.214,0,0,1-4.336-.764,1.805,1.805,0,0,1,.364-.8,40.476,40.476,0,0,1-4.11-1.175.188.188,0,0,0-.247.157,5.563,5.563,0,0,0,.827,3.786,4.806,4.806,0,0,0,7.02,1.237,5.566,5.566,0,0,0,2.071-3.274.189.189,0,0,0-.179-.232" transform="translate(-1.76 -1.475)" fill="#fff"/>
    <path id="Path_12461" data-name="Path 12461" d="M58.733,30.432c-.3.025-.88.07-1.574.106a1.83,1.83,0,0,1,.283,1.1,2.214,2.214,0,0,1-4.392-.307,1.794,1.794,0,0,1,.278-.831,40.551,40.551,0,0,1-4.21-.739.189.189,0,0,0-.23.181,5.568,5.568,0,0,0,1.218,3.679,4.807,4.807,0,0,0,7.11.5,5.568,5.568,0,0,0,1.718-3.474.189.189,0,0,0-.2-.212" transform="translate(-2.755 -1.677)" fill="#fff"/>
    <line id="Line_206" data-name="Line 206" x1="0.216" y2="1.224" transform="translate(41.558 34.566)" fill="none" stroke="#fff" strokeLinecap="round" strokeLinejoin="round" strokeWidth="1.016"/>
    <path id="Path_12462" data-name="Path 12462" d="M43.742,38.027c-.539.536-3.7.989-4.543-.952" transform="translate(-2.209 -2.089)" fill="none" stroke="#fff" strokeLinecap="round" strokeLinejoin="round" strokeWidth="1.016"/>
    <path id="Path_12463" data-name="Path 12463" d="M44.013,38.084c.323.688,3.137,2.194,4.595.659" transform="translate(-2.48 -2.146)" fill="none" stroke="#fff" strokeLinecap="round" strokeLinejoin="round" strokeWidth="1.016"/>
    <path id="Path_12464" data-name="Path 12464" d="M14.87,11.216a.166.166,0,0,1-.117-.047,5.827,5.827,0,0,1-1.21-3.642.173.173,0,0,1,.15-.1H13.7a.171.171,0,0,1,.151.092c.042.082.1.186.164.306.464.85,1.328,2.434,1.015,3.282a.168.168,0,0,1-.121.107.136.136,0,0,1-.039,0" transform="translate(-0.761 -0.418)" fill="#fff"/>
    <path id="Path_12465" data-name="Path 12465" d="M17.92,9.534a.17.17,0,0,1-.159-.11,7.963,7.963,0,0,0-1.934-2.987.172.172,0,0,1-.059-.179.17.17,0,0,1,.143-.124,1.181,1.181,0,0,1,.154-.009,1.891,1.891,0,0,1,1.395.744,3.083,3.083,0,0,1,.628,2.525.167.167,0,0,1-.151.14H17.92" transform="translate(-0.888 -0.345)" fill="#fff"/>
    <path id="Path_12466" data-name="Path 12466" d="M20.712,8.13A.17.17,0,0,1,20.547,8a8.462,8.462,0,0,0-1.611-2.97.17.17,0,0,1,.1-.31.092.092,0,0,1,.023,0,1.915,1.915,0,0,1,1.318.886A3.284,3.284,0,0,1,20.877,8a.17.17,0,0,1-.163.129Z" transform="translate(-1.063 -0.266)" fill="#fff"/>
    <path id="Path_12467" data-name="Path 12467" d="M78.478,37.055a.17.17,0,0,1-.159-.229,8.669,8.669,0,0,1,2.417-2.389.174.174,0,0,1,.1-.03.17.17,0,0,1,.161.221c-.118.378-1.671,2.3-2.49,2.426l-.025,0" transform="translate(-4.413 -1.939)" fill="#fff"/>
    <path id="Path_12468" data-name="Path 12468" d="M76.36,35.909a.17.17,0,0,1-.169-.183,4.929,4.929,0,0,1,2.229-2.713A.167.167,0,0,1,78.48,33a.172.172,0,0,1,.113.043.169.169,0,0,1,.051.168,11.529,11.529,0,0,1-2.2,2.671.169.169,0,0,1-.089.025" transform="translate(-4.294 -1.86)" fill="#fff"/>
    <path id="Path_12469" data-name="Path 12469" d="M74.555,34.565a.164.164,0,0,1-.042-.006.168.168,0,0,1-.126-.152,2.864,2.864,0,0,1,2.076-2.488l.029,0a.171.171,0,0,1,.159.109.17.17,0,0,1-.068.2A12.294,12.294,0,0,0,74.7,34.488a.171.171,0,0,1-.142.076" transform="translate(-4.192 -1.799)" fill="#fff"/>
    <path id="Path_12470" data-name="Path 12470" d="M32.1,35.314A35.61,35.61,0,0,1,26.321,33" transform="translate(-1.483 -1.86)" fill="none" stroke="#fff" strokeLinecap="round" strokeLinejoin="round" strokeWidth="1.016"/>
    <path id="Path_12471" data-name="Path 12471" d="M29.828,37.251a33.463,33.463,0,0,1-4.64-.62" transform="translate(-1.42 -2.064)" fill="none" stroke="#fff" strokeLinecap="round" strokeLinejoin="round" strokeWidth="1.016"/>
    <path id="Path_12472" data-name="Path 12472" d="M32.1,39.855c-.57,0-5.534,0-5.779,0" transform="translate(-1.483 -2.246)" fill="none" stroke="#fff" strokeLinecap="round" strokeLinejoin="round" strokeWidth="1.016"/>
    <path id="Path_12473" data-name="Path 12473" d="M53.882,38.36a26.376,26.376,0,0,0,6.919,0" transform="translate(-3.037 -2.162)" fill="none" stroke="#fff" strokeLinecap="round" strokeLinejoin="round" strokeWidth="1.016"/>
    <path id="Path_12474" data-name="Path 12474" d="M54.643,40.712a27.544,27.544,0,0,0,4.611.4" transform="translate(-3.08 -2.294)" fill="none" stroke="#fff" strokeLinecap="round" strokeLinejoin="round" strokeWidth="1.016"/>
    <path id="Path_12475" data-name="Path 12475" d="M53.753,42.851c1.221.326,4.192,1.1,4.192,1.1" transform="translate(-3.029 -2.415)" fill="none" stroke="#fff" strokeLinecap="round" strokeLinejoin="round" strokeWidth="1.016"/>
    <path id="Path_12476" data-name="Path 12476" d="M44.494,34.883a5.531,5.531,0,0,1,1.018.265c.265.107.544.3.36.624s-.552.366-.892.6-.489.476-.823.417-.393-.334-.63-.674-.571-.5-.631-.872.265-.454.551-.463a5.508,5.508,0,0,1,1.047.1" transform="translate(-2.417 -1.96)" fill="#fff"/>
    <path id="Path_12477" data-name="Path 12477" d="M24.261,5.849A26.317,26.317,0,0,0,21.167.435c0-.019.03-.062.076-.062,1.962.759,3.208,3.481,3.035,5.414a.142.142,0,0,1-.017.062" transform="translate(-1.193 -0.021)" fill="#1a1311"/>
    <path id="Path_12478" data-name="Path 12478" d="M26.187,3.687a.422.422,0,0,1-.158-.21A15.624,15.624,0,0,0,24.159.126a.1.1,0,0,1-.015-.1A.041.041,0,0,1,24.185,0a.094.094,0,0,1,.037.012,4.031,4.031,0,0,1,1.966,3.674" transform="translate(-1.36 0)" fill="#1a1311"/>
    <path id="Path_12479" data-name="Path 12479" d="M74.966,28.149c1.221-2.064,4.2-2.226,5.1-2.226a7.727,7.727,0,0,1,1.387.118c.084.016.115.042.12.051a.2.2,0,0,1-.115.052l-.154.025A15.143,15.143,0,0,0,75.061,28.1a.44.44,0,0,1-.1.046" transform="translate(-4.225 -1.461)" fill="#1a1311"/>
    <path id="Path_12480" data-name="Path 12480" d="M75.881,25.48a2.786,2.786,0,0,1,2.469-1.153,4.528,4.528,0,0,1,1.668.324,11.333,11.333,0,0,0-3.977.785.746.746,0,0,1-.159.044" transform="translate(-4.276 -1.371)" fill="#1a1311"/>
    <path id="Path_12481" data-name="Path 12481" d="M82.448,53.43a.511.511,0,0,1-.51.51H.51a.51.51,0,0,1,0-1.019H81.938A.511.511,0,0,1,82.448,53.43Z" transform="translate(0 -2.982)" fill="#1a1311"/>
    <path id="Path_12482" data-name="Path 12482" d="M177.314,42.477a31.336,31.336,0,0,1-10.746-.932l-1.8,8.422c6.3,2.684,20.661,1.449,26.892-6.361l-3.679-5.365q-6.077,3.7-10.666,4.236" transform="translate(-9.286 -2.155)" fill="#1a1311"/>
    <path id="Path_12483" data-name="Path 12483" d="M176.715,34.871a14.691,14.691,0,0,0,7.242-3.382l-3.6-5.253a14.3,14.3,0,0,1-11.878,1.128l-1.131,6.766a17.755,17.755,0,0,0,9.369.742" transform="translate(-9.431 -1.479)" fill="#1a1311"/>
    <path id="Path_12484" data-name="Path 12484" d="M151.5,44.018c-1.262-.747-.879-2.832-.661-3.992.615-3.276,2.388-9.129,2.527-9.692a46.585,46.585,0,0,1-7.383-1.795c-1.789,3.99-3.607,11.354-2.609,16.45,1.173,5.988,11.059,10.244,16.826-.283a13.83,13.83,0,0,1-4.294-3.164c-.734,1.5-2.454,3.631-4.406,2.476" transform="translate(-8.064 -1.608)" fill="#1a1311"/>
    <path id="Path_12485" data-name="Path 12485" d="M244.833,29.992c-2.13,4.245-5.321,10.67-16.3,12.282l2.8,8.516c7.677-.98,17.581-7.615,20.539-18.833Z" transform="translate(-12.88 -1.69)" fill="#1a1311"/>
    <path id="Path_12486" data-name="Path 12486" d="M132.04,44.15q-.057-1.3-.114-2.6,2.231-.054,4.461-.067-.109-1.891-.216-3.781-2.228-.045-4.458-.05-.083-1.4-.166-2.8,2.156-.038,4.311-.04-.089-1.9-.177-3.8-2.153-.081-4.307-.125-.084-1.4-.166-2.792,2.507-.12,5.012-.191l-.249-4.774q-1.967-.055-3.935-.08l.527-2.076q-1.967-.753-3.938-1.475l-1.414,3.4q-1.158.059-2.318.129l1.325-2.31q-2.469-1.413-4.939-2.775a36.484,36.484,0,0,1-7.622,9.984q1.864,2.19,3.728,4.407l.811-.781a185.9,185.9,0,0,1,1.143,18.564c.984-.021,12.257-.4,17.642.235q-.017-2.961-.032-5.922-2.453-.16-4.908-.273m-8.683-15.965q1.56-.1,3.118-.184.151,1.605.3,3.211-1.6,0-3.194.012-.113-1.519-.226-3.039m.535,6.787q1.6-.076,3.206-.134.095,1.4.191,2.8-1.618.016-3.236.05l-.161-2.713m.551,9.248q-.1-1.3-.2-2.6,1.73-.075,3.459-.127l.139,2.643q-1.7.031-3.4.085" transform="translate(-6.405 -1.011)" fill="#1a1311"/>
    <path id="Path_12487" data-name="Path 12487" d="M111,38.371q1.587-1.233,3.174-2.447-1.263-1.97-2.525-3.927-1.032.688-2.065,1.383l-.849-2.99q1.669-.548,3.34-1.073-.757-2.7-1.514-5.4-1.7.395-3.407.814-.583-2.326-1.166-4.649-3.125.746-6.248,1.569l1.3,4.655q-2.607.7-5.213,1.461.726,3.052,1.453,6.108,2.677-.79,5.355-1.523.527,1.9,1.051,3.808-2.4,1.6-4.8,3.253,1.51,2.142,3.022,4.3,1.649-1.175,3.3-2.33.633,2.706,1.266,5.417-1.447.484-2.892.984l.869,4.31c3.059-.626,6.269-1.137,9.6-1.5Q112.524,44.469,111,38.371" transform="translate(-5.401 -1.132)" fill="#1a1311"/>
    <path id="Path_12488" data-name="Path 12488" d="M212.592,42.855l5.006-1.448s-1.924-8.065-2.543-10.825a71.739,71.739,0,0,1-6.438,3.829q-1.357.719-2.8,1.415s-1.819-3.918-2.368-4.954a33.9,33.9,0,0,1-6.264,3.156l2.561,4.462-.068.026c-1.584.628-3.15,1.2-4.682,1.708l3.532,5.148c1.444-.494,2.873-1.02,4.262-1.58,0,0,4.182,7.306,4.8,8.354a14.62,14.62,0,0,1,4.911-2.337l-4.12-8.625a30,30,0,0,0,3.229-2.028Z" transform="translate(-10.99 -1.723)" fill="#1a1311"/>
    <path id="Path_12489" data-name="Path 12489" d="M229.31,35.762c3.314.691,8.031-1.821,8.615-4.62s-2.593-5.834-5.97-6.069c-3.231-.226-4.536,1.337-5.168,3.864-.695,2.774-.791,6.134,2.523,6.824" transform="translate(-12.759 -1.412)" fill="#1a1311"/>
    <path id="Path_12490" data-name="Path 12490" d="M223.317,21.28a2.514,2.514,0,0,0-2.537,2.293,2.293,2.293,0,0,0,4.586,0,2.1,2.1,0,0,0-2.05-2.293" transform="translate(-12.443 -1.199)" fill="#1a1311"/>
    <path id="Path_12491" data-name="Path 12491" d="M222.138,27.126a1.927,1.927,0,0,0-2.365,1.354c-.236.862.929,2.25,1.354,2.365a1.927,1.927,0,0,0,1.011-3.719" transform="translate(-12.384 -1.525)" fill="#1a1311"/>
    <path id="Path_12492" data-name="Path 12492" d="M226.138,20.569c0,1.26.482,2.282,1.967,2.282a2.51,2.51,0,0,0,2.687-2.282,2.51,2.51,0,0,0-2.687-2.282c-1.484,0-1.967,1.022-1.967,2.282" transform="translate(-12.745 -1.031)" fill="#1a1311"/>
    <path id="Path_12493" data-name="Path 12493" d="M233,19.837a2.468,2.468,0,1,0,4.833.9c.272-1.457-.775-2.264-2.11-2.513s-2.452.154-2.723,1.611" transform="translate(-13.129 -1.023)" fill="#1a1311"/>
    <path id="Path_12494" data-name="Path 12494" d="M193.73,25.075l-.409-3.02,1.764-.259.8,5.874-1.573.213-2.534-2.277.349,2.572-1.738.236-.8-5.874,1.388-.189Z" transform="translate(-10.685 -1.228)" fill="#1a1311"/>
    <path id="Path_12495" data-name="Path 12495" d="M201.522,23.99l.039-1.962,1.552-.417-.393,6.175-1.521.419.07-2.255-2.591-3.1,1.606-.443Z" transform="translate(-11.197 -1.218)" fill="#1a1311"/>
    <path id="Path_12496" data-name="Path 12496" d="M207.5,19.391a2.637,2.637,0,0,1,1.467-.16,1.4,1.4,0,0,1,1.04.826,11.9,11.9,0,0,0,.792,1.537,2.99,2.99,0,0,0,.945.984l-.92,1.177a2.985,2.985,0,0,1-.494-.324,2,2,0,0,1-1.012.751,1.907,1.907,0,0,1-1.356.069,1.49,1.49,0,0,1-.892-.93,1.429,1.429,0,0,1,.285-1.582,2.066,2.066,0,0,1,1.545-.715.742.742,0,0,0-1.071-.4,2.026,2.026,0,0,0-.839.6l-.724-.917a2.8,2.8,0,0,1,1.233-.91m1.476,3.746a.737.737,0,0,0,.377-.3.717.717,0,0,0,.1-.453.79.79,0,0,0-.36-.276.617.617,0,0,0-.46.006.645.645,0,0,0-.353.294.49.49,0,0,0-.019.427.53.53,0,0,0,.28.3.539.539,0,0,0,.436,0" transform="translate(-11.625 -1.081)" fill="#1a1311"/>
    <path id="Path_12497" data-name="Path 12497" d="M217.513,17.121l1.255,2.307-1.317.716-1.006-1.85c-.135-.247-.274-.385-.416-.415a.773.773,0,0,0-.515.118.6.6,0,0,0-.237.375.987.987,0,0,0,.165.6l.961,1.765-1.262.675-2.027-3.7,1.088-.6.209.322a1.745,1.745,0,0,1,.814-.923,2.025,2.025,0,0,1,1.236-.26,1.467,1.467,0,0,1,1.052.878" transform="translate(-12.011 -0.915)" fill="#1a1311"/>
    <path id="Path_12498" data-name="Path 12498" d="M143.374,14.22a2.921,2.921,0,0,1,2.254,1.073,3.317,3.317,0,0,1,.646,2.318,2.778,2.778,0,0,1-1.062,2.087,3.169,3.169,0,0,1-2.261.68,3.091,3.091,0,0,1-2.141-1,2.809,2.809,0,0,1-.754-2.183A3.377,3.377,0,0,1,141,14.986a2.871,2.871,0,0,1,2.374-.765m-1.521,3a1.372,1.372,0,1,0,.467-.94,1.321,1.321,0,0,0-.467.94" transform="translate(-7.893 -0.801)" fill="#1a1311"/>
    <path id="Path_12499" data-name="Path 12499" d="M152.937,18.239q-.228-.171-.4-.286a.989.989,0,0,0-.39-.157.673.673,0,0,0-.4.027.344.344,0,0,0-.194.274c-.026.147.063.289.272.423a4.55,4.55,0,0,1,.527.39,2.309,2.309,0,0,1,.569.646,1.265,1.265,0,0,1,.126.895,1.561,1.561,0,0,1-.648,1.072,1.424,1.424,0,0,1-1.086.245,4.369,4.369,0,0,1-1.145-.359,2.979,2.979,0,0,1-.847-.623l.823-1.015a1.852,1.852,0,0,0,.562.411,1.351,1.351,0,0,0,.6.155.257.257,0,0,0,.283-.211.427.427,0,0,0-.25-.46,4.469,4.469,0,0,1-.527-.36,1.908,1.908,0,0,1-.6-.7,1.571,1.571,0,0,1-.092-.993,1.239,1.239,0,0,1,.693-.929,1.76,1.76,0,0,1,1.135-.192,2.952,2.952,0,0,1,.952.348,3.352,3.352,0,0,1,.735.558Z" transform="translate(-8.416 -0.928)" fill="#1a1311"/>
    <path id="Path_12500" data-name="Path 12500" d="M160.37,21.2q-.277,1.062-.62,2.136l-1.409-.382.573-2.037a.593.593,0,0,0-.389-.776.642.642,0,0,0-.721.526q-.279.989-.556,2.011l-1.577-.437L157.22,16.5l1.516.4-.578,2.1a1.365,1.365,0,0,1,1.072-.136,1.737,1.737,0,0,1,1.142,2.34" transform="translate(-8.773 -0.93)" fill="#1a1311"/>
    <path id="Path_12501" data-name="Path 12501" d="M162.831,24.415l1.346-3.608,1.526.563-1.345,3.609Zm1.57-4.245.494-1.332,1.525.564-.483,1.335Z" transform="translate(-9.177 -1.062)" fill="#1a1311"/>
  </g>
</svg>
