<svg id="parts-new" xmlns="http://www.w3.org/2000/svg" xmlns:xlink="http://www.w3.org/1999/xlink" width="96" height="55" viewBox="0 0 96 55">
  <defs>
    <linearGradient id="linear-gradient" x1="0.868" x2="0.065" y2="0.811" gradientUnits="objectBoundingBox">
      <stop offset="0" stop-color="#ff52a2"/>
      <stop offset="1" stop-color="#fa8dbf"/>
    </linearGradient>
    <clipPath id="clip-path">
      <rect id="Rectangle_79" data-name="Rectangle 79" width="96" height="55" fill="none"/>
    </clipPath>
  </defs>
  <g id="Group_504" data-name="Group 504">
    <path id="Path_442" data-name="Path 442" d="M32.814,0,0,18.8V55L96,0Z" transform="translate(0 0)" fill="url(#linear-gradient)"/>
    <g id="Group_503" data-name="Group 503" transform="translate(0 0)">
      <g id="Group_502" data-name="Group 502" clip-path="url(#clip-path)">
        <path id="Path_443" data-name="Path 443" d="M15.53,37.065l-6.9-11.852a1.674,1.674,0,0,1,.517-2.5,1.934,1.934,0,0,1,2.548.521l6.062,6.14.041-.024-4.478-7.7a1.048,1.048,0,0,1,.425-1.573,1.064,1.064,0,0,1,1.586.421l7.1,12.2c.569.978.266,1.586-.432,1.986-.78.447-1.394.283-2.186-.512l-7.8-7.858-.039.023,5.568,9.572a1.049,1.049,0,0,1-.426,1.574,1.065,1.065,0,0,1-1.587-.421" transform="translate(-0.106 -0.404)" fill="#fff"/>
        <path id="Path_444" data-name="Path 444" d="M27.587,29.789,20.6,17.774a1.243,1.243,0,0,1,.478-1.766L25.2,13.643a1.15,1.15,0,0,1,1.618.431,1.131,1.131,0,0,1-.433,1.606l-3,1.716,2.193,3.768,2.2-1.258a1.148,1.148,0,0,1,1.617.43,1.131,1.131,0,0,1-.432,1.606l-2.2,1.258,2.547,4.378,3-1.716a1.151,1.151,0,0,1,1.619.431,1.132,1.132,0,0,1-.434,1.606l-4.124,2.363a1.262,1.262,0,0,1-1.781-.473" transform="translate(-0.259 -0.274)" fill="#fff"/>
        <path id="Path_445" data-name="Path 445" d="M39.086,22.772,31.126,11.91a2.92,2.92,0,0,1-.2-.294,1.222,1.222,0,0,1,.424-1.762,1.117,1.117,0,0,1,1.627.4l6.9,9.651.041-.024L35.1,9.336a1.478,1.478,0,0,1,.622-1.987,1.5,1.5,0,0,1,2.046.459l6.79,9.414L44.6,17.2,39.569,6.34A1.113,1.113,0,0,1,41.533,5.3l.145.3,5.645,12.57a1.594,1.594,0,0,1-.7,2.275,1.637,1.637,0,0,1-2.357-.523l-5.888-8-.04.024L42.349,20.9a1.888,1.888,0,0,1-3.263,1.869" transform="translate(-0.391 -0.096)" fill="#fff"/>
      </g>
    </g>
  </g>
</svg>
